<svg xmlns="http://www.w3.org/2000/svg" width="30" height="30" viewBox="0 0 30 30">
  <g id="fb" transform="translate(-1060 -49)">
    <g id="Ellipse_1" data-name="Ellipse 1" transform="translate(1060 49)" fill="none" stroke="#efefef" stroke-width="1">
      <circle cx="15" cy="15" r="15" stroke="none"/>
      <circle cx="15" cy="15" r="14.5" fill="none"/>
    </g>
    <g id="facebook-logo_1_" data-name="facebook-logo (1)" transform="translate(1049.923 59)">
      <path id="Path_64" data-name="Path 64" d="M27.328,0,26.019,0A2.3,2.3,0,0,0,23.6,2.484V3.629H22.283a.206.206,0,0,0-.206.206V5.494a.206.206,0,0,0,.206.206H23.6V9.887a.206.206,0,0,0,.206.206h1.717a.206.206,0,0,0,.206-.206V5.7h1.539a.206.206,0,0,0,.206-.206V3.835a.206.206,0,0,0-.206-.206H25.727V2.658c0-.467.111-.7.719-.7h.882a.206.206,0,0,0,.206-.206V.208A.206.206,0,0,0,27.328,0Z" fill="#798296"/>
    </g>
  </g>
</svg>
